<mxfile host="Electron" modified="2024-04-28T13:09:54.439Z" agent="Mozilla/5.0 (Windows NT 10.0; Win64; x64) AppleWebKit/537.36 (KHTML, like Gecko) draw.io/24.2.5 Chrome/120.0.6099.109 Electron/28.1.0 Safari/537.36" etag="54wcaB0XUQqfvybPb_UY" version="24.2.5" type="device" pages="2">
  <diagram name="Page-1" id="2YBvvXClWsGukQMizWep">
    <mxGraphModel dx="819" dy="478" grid="1" gridSize="10" guides="1" tooltips="1" connect="1" arrows="1" fold="1" page="1" pageScale="1" pageWidth="850" pageHeight="1100" math="0" shadow="0">
      <root>
        <mxCell id="0" />
        <mxCell id="1" parent="0" />
        <mxCell id="HssEaDPhGQ170ZanIvbt-1" value="Owner" style="shape=umlLifeline;perimeter=lifelinePerimeter;whiteSpace=wrap;html=1;container=1;dropTarget=0;collapsible=0;recursiveResize=0;outlineConnect=0;portConstraint=eastwest;newEdgeStyle={&quot;curved&quot;:0,&quot;rounded&quot;:0};participant=umlActor;horizontal=1;verticalAlign=middle;align=center;spacingTop=0;spacing=2;spacingBottom=60;fillColor=#f8cecc;gradientColor=#ea6b66;strokeColor=#b85450;" parent="1" vertex="1">
          <mxGeometry x="92" y="127" width="19.83" height="943" as="geometry" />
        </mxCell>
        <mxCell id="HssEaDPhGQ170ZanIvbt-2" value="Owner App" style="shape=umlLifeline;perimeter=lifelinePerimeter;whiteSpace=wrap;html=1;container=1;dropTarget=0;collapsible=0;recursiveResize=0;outlineConnect=0;portConstraint=eastwest;newEdgeStyle={&quot;curved&quot;:0,&quot;rounded&quot;:0};fillColor=#f8cecc;gradientColor=#ea6b66;strokeColor=#b85450;" parent="1" vertex="1">
          <mxGeometry x="251" y="127" width="100" height="953" as="geometry" />
        </mxCell>
        <mxCell id="X7sTj3hDLXXS_QdZAhLl-9" value="" style="html=1;points=[[0,0,0,0,5],[0,1,0,0,-5],[1,0,0,0,5],[1,1,0,0,-5]];perimeter=orthogonalPerimeter;outlineConnect=0;targetShapes=umlLifeline;portConstraint=eastwest;newEdgeStyle={&quot;curved&quot;:0,&quot;rounded&quot;:0};fillColor=#f8cecc;gradientColor=#ea6b66;strokeColor=#b85450;" parent="HssEaDPhGQ170ZanIvbt-2" vertex="1">
          <mxGeometry x="45" y="56" width="10" height="897" as="geometry" />
        </mxCell>
        <mxCell id="HssEaDPhGQ170ZanIvbt-3" value="Database" style="shape=umlLifeline;perimeter=lifelinePerimeter;whiteSpace=wrap;html=1;container=1;dropTarget=0;collapsible=0;recursiveResize=0;outlineConnect=0;portConstraint=eastwest;newEdgeStyle={&quot;curved&quot;:0,&quot;rounded&quot;:0};fontFamily=Helvetica;strokeColor=#b85450;align=center;verticalAlign=middle;fontSize=12;fontColor=default;fillColor=#f8cecc;gradientColor=#ea6b66;" parent="1" vertex="1">
          <mxGeometry x="475" y="125" width="100" height="945" as="geometry" />
        </mxCell>
        <mxCell id="HssEaDPhGQ170ZanIvbt-4" value="" style="endArrow=block;endFill=1;html=1;edgeStyle=orthogonalEdgeStyle;align=left;verticalAlign=top;rounded=0;fontFamily=comfortaa;" parent="1" edge="1">
          <mxGeometry x="-1" relative="1" as="geometry">
            <mxPoint x="120" y="206" as="sourcePoint" />
            <mxPoint x="280" y="206" as="targetPoint" />
          </mxGeometry>
        </mxCell>
        <mxCell id="HssEaDPhGQ170ZanIvbt-5" value="Επιλογή συγκεκριμένου&lt;span style=&quot;white-space: pre;&quot;&gt;&#x9;&lt;/span&gt;" style="edgeLabel;html=1;align=center;verticalAlign=middle;resizable=0;points=[];fontFamily=comfortaa;" parent="HssEaDPhGQ170ZanIvbt-4" connectable="0" vertex="1">
          <mxGeometry x="0.0435" y="1" relative="1" as="geometry">
            <mxPoint x="-13" y="-7" as="offset" />
          </mxGeometry>
        </mxCell>
        <mxCell id="HssEaDPhGQ170ZanIvbt-6" value="establishment" style="edgeLabel;html=1;align=center;verticalAlign=middle;resizable=0;points=[];fontFamily=comfortaa;" parent="HssEaDPhGQ170ZanIvbt-4" connectable="0" vertex="1">
          <mxGeometry x="0.0608" y="-3" relative="1" as="geometry">
            <mxPoint x="-25" y="4" as="offset" />
          </mxGeometry>
        </mxCell>
        <mxCell id="HssEaDPhGQ170ZanIvbt-7" value="" style="endArrow=block;endFill=1;html=1;edgeStyle=orthogonalEdgeStyle;align=left;verticalAlign=top;rounded=0;fontFamily=comfortaa;" parent="1" edge="1">
          <mxGeometry x="-1" relative="1" as="geometry">
            <mxPoint x="334" y="224" as="sourcePoint" />
            <mxPoint x="494" y="224" as="targetPoint" />
          </mxGeometry>
        </mxCell>
        <mxCell id="HssEaDPhGQ170ZanIvbt-8" value="Αναζήτηση στη βάση δεδομένων" style="edgeLabel;html=1;align=center;verticalAlign=middle;resizable=0;points=[];fontFamily=comfortaa;labelBackgroundColor=none;" parent="HssEaDPhGQ170ZanIvbt-7" connectable="0" vertex="1">
          <mxGeometry x="-0.1875" y="2" relative="1" as="geometry">
            <mxPoint x="11" y="-8" as="offset" />
          </mxGeometry>
        </mxCell>
        <mxCell id="HssEaDPhGQ170ZanIvbt-9" value="για ημερομηνίες και σχόλια" style="edgeLabel;html=1;align=center;verticalAlign=middle;resizable=0;points=[];fontFamily=comfortaa;labelBackgroundColor=none;" parent="HssEaDPhGQ170ZanIvbt-7" connectable="0" vertex="1">
          <mxGeometry x="0.0366" relative="1" as="geometry">
            <mxPoint x="-17" y="6" as="offset" />
          </mxGeometry>
        </mxCell>
        <mxCell id="HssEaDPhGQ170ZanIvbt-10" value="" style="endArrow=block;endFill=1;html=1;edgeStyle=orthogonalEdgeStyle;align=left;verticalAlign=top;rounded=0;fontFamily=comfortaa;" parent="1" edge="1">
          <mxGeometry x="-1" relative="1" as="geometry">
            <mxPoint x="121" y="352" as="sourcePoint" />
            <mxPoint x="281" y="352" as="targetPoint" />
          </mxGeometry>
        </mxCell>
        <mxCell id="HssEaDPhGQ170ZanIvbt-11" value="Επιλογή εκτεταμένου" style="edgeLabel;html=1;align=center;verticalAlign=middle;resizable=0;points=[];fontFamily=comfortaa;" parent="HssEaDPhGQ170ZanIvbt-10" connectable="0" vertex="1">
          <mxGeometry x="0.1293" y="1" relative="1" as="geometry">
            <mxPoint x="-8" y="-8" as="offset" />
          </mxGeometry>
        </mxCell>
        <mxCell id="HssEaDPhGQ170ZanIvbt-12" value="σχολίου" style="edgeLabel;html=1;align=center;verticalAlign=middle;resizable=0;points=[];fontFamily=comfortaa;" parent="HssEaDPhGQ170ZanIvbt-10" connectable="0" vertex="1">
          <mxGeometry x="0.1724" y="-2" relative="1" as="geometry">
            <mxPoint x="-15" y="5" as="offset" />
          </mxGeometry>
        </mxCell>
        <mxCell id="HssEaDPhGQ170ZanIvbt-13" value="" style="endArrow=block;endFill=1;html=1;edgeStyle=orthogonalEdgeStyle;align=left;verticalAlign=top;rounded=0;fontFamily=comfortaa;" parent="1" edge="1">
          <mxGeometry x="-1" relative="1" as="geometry">
            <mxPoint x="119" y="521" as="sourcePoint" />
            <mxPoint x="279" y="521" as="targetPoint" />
          </mxGeometry>
        </mxCell>
        <mxCell id="HssEaDPhGQ170ZanIvbt-14" value="Επιλογή συγκεκριμένου" style="edgeLabel;html=1;align=center;verticalAlign=middle;resizable=0;points=[];fontFamily=comfortaa;labelBackgroundColor=none;" parent="HssEaDPhGQ170ZanIvbt-13" connectable="0" vertex="1">
          <mxGeometry x="0.2625" y="2" relative="1" as="geometry">
            <mxPoint x="-20" y="-6" as="offset" />
          </mxGeometry>
        </mxCell>
        <mxCell id="HssEaDPhGQ170ZanIvbt-15" value="σχολίου για καρφίτσωμα" style="edgeLabel;html=1;align=center;verticalAlign=middle;resizable=0;points=[];fontFamily=comfortaa;" parent="HssEaDPhGQ170ZanIvbt-13" connectable="0" vertex="1">
          <mxGeometry x="0.7607" relative="1" as="geometry">
            <mxPoint x="-60" y="8" as="offset" />
          </mxGeometry>
        </mxCell>
        <mxCell id="HssEaDPhGQ170ZanIvbt-16" value="" style="endArrow=block;endFill=1;html=1;edgeStyle=orthogonalEdgeStyle;align=left;verticalAlign=top;rounded=0;fontFamily=comfortaa;" parent="1" edge="1">
          <mxGeometry x="-1" relative="1" as="geometry">
            <mxPoint x="327" y="378" as="sourcePoint" />
            <mxPoint x="487" y="378" as="targetPoint" />
          </mxGeometry>
        </mxCell>
        <mxCell id="HssEaDPhGQ170ZanIvbt-17" value="Αίτημα για φόρτωση του" style="edgeLabel;html=1;align=center;verticalAlign=middle;resizable=0;points=[];fontFamily=comfortaa;" parent="HssEaDPhGQ170ZanIvbt-16" connectable="0" vertex="1">
          <mxGeometry x="0.3" y="-1" relative="1" as="geometry">
            <mxPoint x="-27" y="-9" as="offset" />
          </mxGeometry>
        </mxCell>
        <mxCell id="HssEaDPhGQ170ZanIvbt-18" value="κάθε σχολίου" style="edgeLabel;html=1;align=center;verticalAlign=middle;resizable=0;points=[];fontFamily=comfortaa;" parent="HssEaDPhGQ170ZanIvbt-16" connectable="0" vertex="1">
          <mxGeometry x="0.231" y="-3" relative="1" as="geometry">
            <mxPoint x="-19" y="5" as="offset" />
          </mxGeometry>
        </mxCell>
        <mxCell id="HssEaDPhGQ170ZanIvbt-19" value="" style="endArrow=none;endFill=0;html=1;edgeStyle=orthogonalEdgeStyle;align=left;verticalAlign=top;rounded=0;startArrow=classic;startFill=1;dashed=1;fontFamily=comfortaa;" parent="1" edge="1">
          <mxGeometry x="-1" relative="1" as="geometry">
            <mxPoint x="318" y="276" as="sourcePoint" />
            <mxPoint x="478" y="276" as="targetPoint" />
          </mxGeometry>
        </mxCell>
        <mxCell id="HssEaDPhGQ170ZanIvbt-20" value="Επιστροφή σχετικών αποτελεσμάτων" style="edgeLabel;html=1;align=center;verticalAlign=middle;resizable=0;points=[];fontFamily=comfortaa;" parent="HssEaDPhGQ170ZanIvbt-19" connectable="0" vertex="1">
          <mxGeometry x="-0.3237" y="2" relative="1" as="geometry">
            <mxPoint x="41" y="-14" as="offset" />
          </mxGeometry>
        </mxCell>
        <mxCell id="HssEaDPhGQ170ZanIvbt-21" value="" style="endArrow=none;endFill=0;html=1;edgeStyle=orthogonalEdgeStyle;align=left;verticalAlign=top;rounded=0;startArrow=classic;startFill=1;fontFamily=comfortaa;" parent="1" edge="1">
          <mxGeometry x="-1" relative="1" as="geometry">
            <mxPoint x="118" y="466" as="sourcePoint" />
            <mxPoint x="278" y="466" as="targetPoint" />
          </mxGeometry>
        </mxCell>
        <mxCell id="HssEaDPhGQ170ZanIvbt-22" value="&lt;font&gt;Εμφάνιση εκτεταμένων σχολίων&lt;/font&gt;" style="edgeLabel;html=1;align=center;verticalAlign=middle;resizable=0;points=[];fontFamily=comfortaa;labelBackgroundColor=none;" parent="HssEaDPhGQ170ZanIvbt-21" connectable="0" vertex="1">
          <mxGeometry x="-0.1325" relative="1" as="geometry">
            <mxPoint x="16" y="-10" as="offset" />
          </mxGeometry>
        </mxCell>
        <mxCell id="HssEaDPhGQ170ZanIvbt-23" value="&lt;font&gt;στον owner&lt;/font&gt;" style="edgeLabel;html=1;align=center;verticalAlign=middle;resizable=0;points=[];fontFamily=comfortaa;" parent="HssEaDPhGQ170ZanIvbt-21" connectable="0" vertex="1">
          <mxGeometry x="0.2525" y="-1" relative="1" as="geometry">
            <mxPoint x="-16" y="6" as="offset" />
          </mxGeometry>
        </mxCell>
        <mxCell id="HssEaDPhGQ170ZanIvbt-24" value="" style="endArrow=none;endFill=0;html=1;edgeStyle=orthogonalEdgeStyle;align=left;verticalAlign=top;rounded=0;startArrow=classic;startFill=1;fontFamily=comfortaa;dashed=1;" parent="1" edge="1">
          <mxGeometry x="-1" relative="1" as="geometry">
            <mxPoint x="332" y="432" as="sourcePoint" />
            <mxPoint x="492" y="432" as="targetPoint" />
          </mxGeometry>
        </mxCell>
        <mxCell id="HssEaDPhGQ170ZanIvbt-25" value="Επιστροφή πληροφοριών αναλυτικών" style="edgeLabel;html=1;align=center;verticalAlign=middle;resizable=0;points=[];fontFamily=comfortaa;" parent="HssEaDPhGQ170ZanIvbt-24" connectable="0" vertex="1">
          <mxGeometry x="-0.1246" relative="1" as="geometry">
            <mxPoint x="23" y="-12" as="offset" />
          </mxGeometry>
        </mxCell>
        <mxCell id="HssEaDPhGQ170ZanIvbt-26" value="στατιστικών establishment" style="edgeLabel;html=1;align=center;verticalAlign=middle;resizable=0;points=[];fontFamily=comfortaa;" parent="HssEaDPhGQ170ZanIvbt-24" connectable="0" vertex="1">
          <mxGeometry x="0.4185" y="-2" relative="1" as="geometry">
            <mxPoint x="-21" y="5" as="offset" />
          </mxGeometry>
        </mxCell>
        <mxCell id="HssEaDPhGQ170ZanIvbt-27" value="" style="endArrow=none;endFill=0;html=1;edgeStyle=orthogonalEdgeStyle;align=left;verticalAlign=top;rounded=0;startArrow=classic;startFill=1;fontFamily=comfortaa;" parent="1" edge="1">
          <mxGeometry x="-1" relative="1" as="geometry">
            <mxPoint x="121" y="301" as="sourcePoint" />
            <mxPoint x="281" y="301" as="targetPoint" />
          </mxGeometry>
        </mxCell>
        <mxCell id="HssEaDPhGQ170ZanIvbt-28" value="Εμφάνιση σχετικών αποτελεσμάτων" style="edgeLabel;html=1;align=center;verticalAlign=middle;resizable=0;points=[];fontFamily=comfortaa;labelBackgroundColor=none;" parent="HssEaDPhGQ170ZanIvbt-27" connectable="0" vertex="1">
          <mxGeometry x="0.2586" y="1" relative="1" as="geometry">
            <mxPoint x="-17" y="-8" as="offset" />
          </mxGeometry>
        </mxCell>
        <mxCell id="HssEaDPhGQ170ZanIvbt-29" value="στον owner" style="edgeLabel;html=1;align=center;verticalAlign=middle;resizable=0;points=[];fontFamily=comfortaa;" parent="HssEaDPhGQ170ZanIvbt-27" connectable="0" vertex="1">
          <mxGeometry x="0.0086" y="2" relative="1" as="geometry">
            <mxPoint x="-1" y="9" as="offset" />
          </mxGeometry>
        </mxCell>
        <mxCell id="HssEaDPhGQ170ZanIvbt-30" value="&lt;font style=&quot;font-size: 10px;&quot;&gt;Βασική ροή&lt;/font&gt;" style="shape=umlFrame;whiteSpace=wrap;html=1;pointerEvents=0;fillColor=#f8cecc;gradientColor=#ea6b66;strokeColor=#b85450;" parent="1" vertex="1">
          <mxGeometry x="24" y="183" width="574" height="317" as="geometry" />
        </mxCell>
        <mxCell id="HssEaDPhGQ170ZanIvbt-31" value="&lt;font style=&quot;font-size: 9px;&quot;&gt;Εναλλακτική ροή 1&lt;/font&gt;" style="shape=umlFrame;whiteSpace=wrap;html=1;pointerEvents=0;fontFamily=Helvetica;fontSize=12;strokeColor=#b85450;align=center;verticalAlign=middle;fontColor=default;fillColor=#f8cecc;gradientColor=#ea6b66;" parent="1" vertex="1">
          <mxGeometry x="24" y="500" width="574" height="290" as="geometry" />
        </mxCell>
        <mxCell id="HssEaDPhGQ170ZanIvbt-32" value="&lt;p style=&quot;line-height: 100%;&quot;&gt;&lt;font style=&quot;&quot;&gt;&lt;font style=&quot;font-size: 9px;&quot;&gt;Εναλλακτική ροή 2&lt;/font&gt;&lt;br&gt;&lt;/font&gt;&lt;/p&gt;" style="shape=umlFrame;whiteSpace=wrap;html=1;pointerEvents=0;fontFamily=Helvetica;strokeColor=#b85450;align=center;verticalAlign=middle;fontSize=12;fontColor=default;fillColor=#f8cecc;gradientColor=#ea6b66;" parent="1" vertex="1">
          <mxGeometry x="24" y="790" width="574" height="170" as="geometry" />
        </mxCell>
        <mxCell id="HssEaDPhGQ170ZanIvbt-33" value="" style="endArrow=block;endFill=1;html=1;edgeStyle=orthogonalEdgeStyle;align=left;verticalAlign=top;rounded=0;fontFamily=comfortaa;" parent="1" edge="1">
          <mxGeometry x="-1" relative="1" as="geometry">
            <mxPoint x="121" y="638" as="sourcePoint" />
            <mxPoint x="281" y="638" as="targetPoint" />
          </mxGeometry>
        </mxCell>
        <mxCell id="HssEaDPhGQ170ZanIvbt-34" value="Επιλογή καρφίτσωμα" style="edgeLabel;html=1;align=center;verticalAlign=middle;resizable=0;points=[];fontFamily=comfortaa;" parent="HssEaDPhGQ170ZanIvbt-33" connectable="0" vertex="1">
          <mxGeometry x="0.1293" y="1" relative="1" as="geometry">
            <mxPoint x="-21" y="-7" as="offset" />
          </mxGeometry>
        </mxCell>
        <mxCell id="HssEaDPhGQ170ZanIvbt-36" value="" style="endArrow=none;endFill=0;html=1;edgeStyle=orthogonalEdgeStyle;align=left;verticalAlign=top;rounded=0;startArrow=classic;startFill=1;fontFamily=comfortaa;" parent="1" edge="1">
          <mxGeometry x="-1" relative="1" as="geometry">
            <mxPoint x="121" y="587" as="sourcePoint" />
            <mxPoint x="281" y="587" as="targetPoint" />
          </mxGeometry>
        </mxCell>
        <mxCell id="HssEaDPhGQ170ZanIvbt-37" value="Εμφάνιση σχολίου" style="edgeLabel;html=1;align=center;verticalAlign=middle;resizable=0;points=[];fontFamily=comfortaa;labelBorderColor=none;labelBackgroundColor=default;" parent="HssEaDPhGQ170ZanIvbt-36" connectable="0" vertex="1">
          <mxGeometry x="0.2586" y="1" relative="1" as="geometry">
            <mxPoint x="-17" y="-11" as="offset" />
          </mxGeometry>
        </mxCell>
        <mxCell id="HssEaDPhGQ170ZanIvbt-38" value="στον owner" style="edgeLabel;html=1;align=center;verticalAlign=middle;resizable=0;points=[];fontFamily=comfortaa;" parent="HssEaDPhGQ170ZanIvbt-36" connectable="0" vertex="1">
          <mxGeometry x="0.0086" y="2" relative="1" as="geometry">
            <mxPoint x="-1" y="9" as="offset" />
          </mxGeometry>
        </mxCell>
        <mxCell id="HssEaDPhGQ170ZanIvbt-39" value="" style="endArrow=none;endFill=0;html=1;edgeStyle=orthogonalEdgeStyle;align=left;verticalAlign=top;rounded=0;startArrow=classic;startFill=1;fontFamily=comfortaa;dashed=1;" parent="1" edge="1">
          <mxGeometry x="-1" relative="1" as="geometry">
            <mxPoint x="319" y="556" as="sourcePoint" />
            <mxPoint x="479" y="556" as="targetPoint" />
          </mxGeometry>
        </mxCell>
        <mxCell id="HssEaDPhGQ170ZanIvbt-40" value="Επιστροφή σχολίου" style="edgeLabel;html=1;align=center;verticalAlign=middle;resizable=0;points=[];fontFamily=comfortaa;labelBackgroundColor=default;" parent="HssEaDPhGQ170ZanIvbt-39" connectable="0" vertex="1">
          <mxGeometry x="-0.3237" y="2" relative="1" as="geometry">
            <mxPoint x="27" y="-9" as="offset" />
          </mxGeometry>
        </mxCell>
        <mxCell id="HssEaDPhGQ170ZanIvbt-41" value="" style="endArrow=none;endFill=0;html=1;edgeStyle=orthogonalEdgeStyle;align=left;verticalAlign=top;rounded=0;startArrow=classic;startFill=1;fontFamily=comfortaa;" parent="1" edge="1">
          <mxGeometry x="-1" relative="1" as="geometry">
            <mxPoint x="120" y="750" as="sourcePoint" />
            <mxPoint x="280" y="750" as="targetPoint" />
          </mxGeometry>
        </mxCell>
        <mxCell id="HssEaDPhGQ170ZanIvbt-42" value="Εμφάνιση επιβεβαίωσης και&amp;nbsp;" style="edgeLabel;html=1;align=center;verticalAlign=middle;resizable=0;points=[];fontFamily=comfortaa;labelBorderColor=none;labelBackgroundColor=default;" parent="HssEaDPhGQ170ZanIvbt-41" connectable="0" vertex="1">
          <mxGeometry x="0.2586" y="1" relative="1" as="geometry">
            <mxPoint x="-17" y="-11" as="offset" />
          </mxGeometry>
        </mxCell>
        <mxCell id="HssEaDPhGQ170ZanIvbt-43" value="άμεση ανανέωση" style="edgeLabel;html=1;align=center;verticalAlign=middle;resizable=0;points=[];fontFamily=comfortaa;" parent="HssEaDPhGQ170ZanIvbt-41" connectable="0" vertex="1">
          <mxGeometry x="0.0086" y="2" relative="1" as="geometry">
            <mxPoint x="-1" y="9" as="offset" />
          </mxGeometry>
        </mxCell>
        <mxCell id="HssEaDPhGQ170ZanIvbt-44" value="" style="endArrow=block;endFill=1;html=1;edgeStyle=orthogonalEdgeStyle;align=left;verticalAlign=top;rounded=0;fontFamily=comfortaa;" parent="1" edge="1">
          <mxGeometry x="-1" relative="1" as="geometry">
            <mxPoint x="330" y="670" as="sourcePoint" />
            <mxPoint x="490" y="670" as="targetPoint" />
          </mxGeometry>
        </mxCell>
        <mxCell id="HssEaDPhGQ170ZanIvbt-45" value="Αίτημα εισαγωγής σε λίστα" style="edgeLabel;html=1;align=center;verticalAlign=middle;resizable=0;points=[];fontFamily=comfortaa;" parent="HssEaDPhGQ170ZanIvbt-44" connectable="0" vertex="1">
          <mxGeometry x="0.1293" y="1" relative="1" as="geometry">
            <mxPoint x="-21" y="-8" as="offset" />
          </mxGeometry>
        </mxCell>
        <mxCell id="HssEaDPhGQ170ZanIvbt-71" value="καρφιτσωμένων σχολίων" style="edgeLabel;html=1;align=center;verticalAlign=middle;resizable=0;points=[];fontFamily=comfortaa;" parent="HssEaDPhGQ170ZanIvbt-44" connectable="0" vertex="1">
          <mxGeometry x="0.1293" y="1" relative="1" as="geometry">
            <mxPoint x="-21" y="11" as="offset" />
          </mxGeometry>
        </mxCell>
        <mxCell id="HssEaDPhGQ170ZanIvbt-46" value="" style="endArrow=none;endFill=0;html=1;edgeStyle=orthogonalEdgeStyle;align=left;verticalAlign=top;rounded=0;startArrow=classic;startFill=1;fontFamily=comfortaa;dashed=1;" parent="1" edge="1">
          <mxGeometry x="-1" relative="1" as="geometry">
            <mxPoint x="319" y="716" as="sourcePoint" />
            <mxPoint x="479" y="716" as="targetPoint" />
          </mxGeometry>
        </mxCell>
        <mxCell id="HssEaDPhGQ170ZanIvbt-47" value="Επιστροφή αιτήματος" style="edgeLabel;html=1;align=center;verticalAlign=middle;resizable=0;points=[];fontFamily=comfortaa;labelBackgroundColor=default;" parent="HssEaDPhGQ170ZanIvbt-46" connectable="0" vertex="1">
          <mxGeometry x="-0.3237" y="2" relative="1" as="geometry">
            <mxPoint x="37" y="-9" as="offset" />
          </mxGeometry>
        </mxCell>
        <mxCell id="HssEaDPhGQ170ZanIvbt-72" value="καρφιτσώματος" style="edgeLabel;html=1;align=center;verticalAlign=middle;resizable=0;points=[];fontFamily=comfortaa;labelBackgroundColor=default;" parent="HssEaDPhGQ170ZanIvbt-46" connectable="0" vertex="1">
          <mxGeometry x="-0.3237" y="2" relative="1" as="geometry">
            <mxPoint x="35" y="12" as="offset" />
          </mxGeometry>
        </mxCell>
        <mxCell id="HssEaDPhGQ170ZanIvbt-66" value="&lt;p style=&quot;line-height: 100%;&quot;&gt;&lt;font style=&quot;&quot;&gt;&lt;font style=&quot;font-size: 9px;&quot;&gt;Εναλλακτική ροή 3&lt;/font&gt;&lt;br&gt;&lt;/font&gt;&lt;/p&gt;" style="shape=umlFrame;whiteSpace=wrap;html=1;pointerEvents=0;fontFamily=Helvetica;strokeColor=#b85450;align=center;verticalAlign=middle;fontSize=12;fontColor=default;fillColor=#f8cecc;gradientColor=#ea6b66;" parent="1" vertex="1">
          <mxGeometry x="24" y="960" width="574" height="120" as="geometry" />
        </mxCell>
        <mxCell id="HssEaDPhGQ170ZanIvbt-67" value="" style="endArrow=block;endFill=1;html=1;edgeStyle=orthogonalEdgeStyle;align=left;verticalAlign=top;rounded=0;fontFamily=comfortaa;" parent="1" edge="1">
          <mxGeometry x="-1" relative="1" as="geometry">
            <mxPoint x="130" y="991" as="sourcePoint" />
            <mxPoint x="270" y="991" as="targetPoint" />
          </mxGeometry>
        </mxCell>
        <mxCell id="HssEaDPhGQ170ZanIvbt-68" value="κλικ επιβεβαιωσης" style="edgeLabel;html=1;align=center;verticalAlign=middle;resizable=0;points=[];fontFamily=comfortaa;labelBackgroundColor=none;" parent="HssEaDPhGQ170ZanIvbt-67" connectable="0" vertex="1">
          <mxGeometry x="0.2625" y="2" relative="1" as="geometry">
            <mxPoint x="-20" y="-6" as="offset" />
          </mxGeometry>
        </mxCell>
        <mxCell id="HssEaDPhGQ170ZanIvbt-69" value="" style="endArrow=block;endFill=1;html=1;edgeStyle=orthogonalEdgeStyle;align=left;verticalAlign=top;rounded=0;fontFamily=comfortaa;" parent="1" edge="1">
          <mxGeometry x="-1" relative="1" as="geometry">
            <mxPoint x="270" y="1041.8" as="sourcePoint" />
            <mxPoint x="130" y="1041.8" as="targetPoint" />
          </mxGeometry>
        </mxCell>
        <mxCell id="HssEaDPhGQ170ZanIvbt-70" value="μήνυμα επιβεβαίωσης" style="edgeLabel;html=1;align=center;verticalAlign=middle;resizable=0;points=[];fontFamily=comfortaa;labelBackgroundColor=none;" parent="HssEaDPhGQ170ZanIvbt-69" connectable="0" vertex="1">
          <mxGeometry x="0.2625" y="2" relative="1" as="geometry">
            <mxPoint x="12" y="-13" as="offset" />
          </mxGeometry>
        </mxCell>
        <mxCell id="HssEaDPhGQ170ZanIvbt-114" value="" style="endArrow=block;endFill=1;html=1;edgeStyle=orthogonalEdgeStyle;align=left;verticalAlign=top;rounded=0;fontFamily=comfortaa;" parent="1" edge="1">
          <mxGeometry x="-1" relative="1" as="geometry">
            <mxPoint x="127" y="820" as="sourcePoint" />
            <mxPoint x="287" y="820" as="targetPoint" />
          </mxGeometry>
        </mxCell>
        <mxCell id="HssEaDPhGQ170ZanIvbt-115" value="Επιλογή καρφίτσωμα" style="edgeLabel;html=1;align=center;verticalAlign=middle;resizable=0;points=[];fontFamily=comfortaa;" parent="HssEaDPhGQ170ZanIvbt-114" connectable="0" vertex="1">
          <mxGeometry x="0.1293" y="1" relative="1" as="geometry">
            <mxPoint x="-21" y="-7" as="offset" />
          </mxGeometry>
        </mxCell>
        <mxCell id="HssEaDPhGQ170ZanIvbt-121" value="" style="endArrow=none;endFill=0;html=1;edgeStyle=orthogonalEdgeStyle;align=left;verticalAlign=top;rounded=0;startArrow=classic;startFill=1;fontFamily=comfortaa;" parent="1" edge="1">
          <mxGeometry x="-1" relative="1" as="geometry">
            <mxPoint x="126" y="932" as="sourcePoint" />
            <mxPoint x="286" y="932" as="targetPoint" />
          </mxGeometry>
        </mxCell>
        <mxCell id="HssEaDPhGQ170ZanIvbt-122" value="Εμφάνιση επιβεβαίωσης και&amp;nbsp;" style="edgeLabel;html=1;align=center;verticalAlign=middle;resizable=0;points=[];fontFamily=comfortaa;labelBorderColor=none;labelBackgroundColor=default;" parent="HssEaDPhGQ170ZanIvbt-121" connectable="0" vertex="1">
          <mxGeometry x="0.2586" y="1" relative="1" as="geometry">
            <mxPoint x="-17" y="-11" as="offset" />
          </mxGeometry>
        </mxCell>
        <mxCell id="HssEaDPhGQ170ZanIvbt-123" value="άμεση ανανέωση" style="edgeLabel;html=1;align=center;verticalAlign=middle;resizable=0;points=[];fontFamily=comfortaa;" parent="HssEaDPhGQ170ZanIvbt-121" connectable="0" vertex="1">
          <mxGeometry x="0.0086" y="2" relative="1" as="geometry">
            <mxPoint x="-1" y="9" as="offset" />
          </mxGeometry>
        </mxCell>
        <mxCell id="HssEaDPhGQ170ZanIvbt-124" value="" style="endArrow=block;endFill=1;html=1;edgeStyle=orthogonalEdgeStyle;align=left;verticalAlign=top;rounded=0;fontFamily=comfortaa;" parent="1" edge="1">
          <mxGeometry x="-1" relative="1" as="geometry">
            <mxPoint x="336" y="852" as="sourcePoint" />
            <mxPoint x="496" y="852" as="targetPoint" />
          </mxGeometry>
        </mxCell>
        <mxCell id="HssEaDPhGQ170ZanIvbt-125" value="Αίτημα εισαγωγής σε λίστα" style="edgeLabel;html=1;align=center;verticalAlign=middle;resizable=0;points=[];fontFamily=comfortaa;" parent="HssEaDPhGQ170ZanIvbt-124" connectable="0" vertex="1">
          <mxGeometry x="0.1293" y="1" relative="1" as="geometry">
            <mxPoint x="-21" y="-8" as="offset" />
          </mxGeometry>
        </mxCell>
        <mxCell id="HssEaDPhGQ170ZanIvbt-126" value="καρφιτσωμένων σχολίων" style="edgeLabel;html=1;align=center;verticalAlign=middle;resizable=0;points=[];fontFamily=comfortaa;" parent="HssEaDPhGQ170ZanIvbt-124" connectable="0" vertex="1">
          <mxGeometry x="0.1293" y="1" relative="1" as="geometry">
            <mxPoint x="-21" y="11" as="offset" />
          </mxGeometry>
        </mxCell>
        <mxCell id="HssEaDPhGQ170ZanIvbt-127" value="" style="endArrow=none;endFill=0;html=1;edgeStyle=orthogonalEdgeStyle;align=left;verticalAlign=top;rounded=0;startArrow=classic;startFill=1;fontFamily=comfortaa;dashed=1;" parent="1" edge="1">
          <mxGeometry x="-1" relative="1" as="geometry">
            <mxPoint x="325" y="898" as="sourcePoint" />
            <mxPoint x="485" y="898" as="targetPoint" />
          </mxGeometry>
        </mxCell>
        <mxCell id="HssEaDPhGQ170ZanIvbt-128" value="Επιστροφή αιτήματος" style="edgeLabel;html=1;align=center;verticalAlign=middle;resizable=0;points=[];fontFamily=comfortaa;labelBackgroundColor=default;" parent="HssEaDPhGQ170ZanIvbt-127" connectable="0" vertex="1">
          <mxGeometry x="-0.3237" y="2" relative="1" as="geometry">
            <mxPoint x="37" y="-9" as="offset" />
          </mxGeometry>
        </mxCell>
        <mxCell id="HssEaDPhGQ170ZanIvbt-129" value="καρφιτσώματος" style="edgeLabel;html=1;align=center;verticalAlign=middle;resizable=0;points=[];fontFamily=comfortaa;labelBackgroundColor=default;" parent="HssEaDPhGQ170ZanIvbt-127" connectable="0" vertex="1">
          <mxGeometry x="-0.3237" y="2" relative="1" as="geometry">
            <mxPoint x="35" y="12" as="offset" />
          </mxGeometry>
        </mxCell>
        <mxCell id="HssEaDPhGQ170ZanIvbt-130" value="*" style="text;strokeColor=none;align=center;fillColor=none;html=1;verticalAlign=middle;whiteSpace=wrap;rounded=0;" parent="1" vertex="1">
          <mxGeometry x="170" y="470" width="60" height="30" as="geometry" />
        </mxCell>
        <mxCell id="HssEaDPhGQ170ZanIvbt-131" value="*" style="text;strokeColor=none;align=center;fillColor=none;html=1;verticalAlign=middle;whiteSpace=wrap;rounded=0;" parent="1" vertex="1">
          <mxGeometry y="970" width="60" height="30" as="geometry" />
        </mxCell>
        <mxCell id="HssEaDPhGQ170ZanIvbt-132" value="*" style="text;strokeColor=none;align=center;fillColor=none;html=1;verticalAlign=middle;whiteSpace=wrap;rounded=0;" parent="1" vertex="1">
          <mxGeometry x="170" y="770" width="60" height="30" as="geometry" />
        </mxCell>
        <mxCell id="X7sTj3hDLXXS_QdZAhLl-1" value="" style="html=1;points=[[0,0,0,0,5],[0,1,0,0,-5],[1,0,0,0,5],[1,1,0,0,-5]];perimeter=orthogonalPerimeter;outlineConnect=0;targetShapes=umlLifeline;portConstraint=eastwest;newEdgeStyle={&quot;curved&quot;:0,&quot;rounded&quot;:0};fillColor=#f8cecc;gradientColor=#ea6b66;strokeColor=#b85450;" parent="1" vertex="1">
          <mxGeometry x="96.92" y="183" width="10" height="897" as="geometry" />
        </mxCell>
        <mxCell id="X7sTj3hDLXXS_QdZAhLl-2" value="" style="html=1;points=[[0,0,0,0,5],[0,1,0,0,-5],[1,0,0,0,5],[1,1,0,0,-5]];perimeter=orthogonalPerimeter;outlineConnect=0;targetShapes=umlLifeline;portConstraint=eastwest;newEdgeStyle={&quot;curved&quot;:0,&quot;rounded&quot;:0};fillColor=#f8cecc;gradientColor=#ea6b66;strokeColor=#b85450;" parent="1" vertex="1">
          <mxGeometry x="520" y="183" width="10" height="117" as="geometry" />
        </mxCell>
        <mxCell id="X7sTj3hDLXXS_QdZAhLl-5" value="" style="html=1;points=[[0,0,0,0,5],[0,1,0,0,-5],[1,0,0,0,5],[1,1,0,0,-5]];perimeter=orthogonalPerimeter;outlineConnect=0;targetShapes=umlLifeline;portConstraint=eastwest;newEdgeStyle={&quot;curved&quot;:0,&quot;rounded&quot;:0};fillColor=#f8cecc;gradientColor=#ea6b66;strokeColor=#b85450;" parent="1" vertex="1">
          <mxGeometry x="520" y="360" width="10" height="117" as="geometry" />
        </mxCell>
        <mxCell id="X7sTj3hDLXXS_QdZAhLl-6" value="" style="html=1;points=[[0,0,0,0,5],[0,1,0,0,-5],[1,0,0,0,5],[1,1,0,0,-5]];perimeter=orthogonalPerimeter;outlineConnect=0;targetShapes=umlLifeline;portConstraint=eastwest;newEdgeStyle={&quot;curved&quot;:0,&quot;rounded&quot;:0};fillColor=#f8cecc;gradientColor=#ea6b66;strokeColor=#b85450;" parent="1" vertex="1">
          <mxGeometry x="520" y="500" width="10" height="117" as="geometry" />
        </mxCell>
        <mxCell id="X7sTj3hDLXXS_QdZAhLl-7" value="" style="html=1;points=[[0,0,0,0,5],[0,1,0,0,-5],[1,0,0,0,5],[1,1,0,0,-5]];perimeter=orthogonalPerimeter;outlineConnect=0;targetShapes=umlLifeline;portConstraint=eastwest;newEdgeStyle={&quot;curved&quot;:0,&quot;rounded&quot;:0};fillColor=#f8cecc;gradientColor=#ea6b66;strokeColor=#b85450;" parent="1" vertex="1">
          <mxGeometry x="520" y="650" width="10" height="140" as="geometry" />
        </mxCell>
        <mxCell id="X7sTj3hDLXXS_QdZAhLl-8" value="" style="html=1;points=[[0,0,0,0,5],[0,1,0,0,-5],[1,0,0,0,5],[1,1,0,0,-5]];perimeter=orthogonalPerimeter;outlineConnect=0;targetShapes=umlLifeline;portConstraint=eastwest;newEdgeStyle={&quot;curved&quot;:0,&quot;rounded&quot;:0};fillColor=#f8cecc;gradientColor=#ea6b66;strokeColor=#b85450;" parent="1" vertex="1">
          <mxGeometry x="520" y="830" width="10" height="110" as="geometry" />
        </mxCell>
      </root>
    </mxGraphModel>
  </diagram>
  <diagram id="kkkRc87oQh0c7eLhH3Qx" name="Page-2">
    <mxGraphModel dx="1062" dy="619" grid="1" gridSize="10" guides="1" tooltips="1" connect="1" arrows="1" fold="1" page="1" pageScale="1" pageWidth="980" pageHeight="1390" math="0" shadow="0">
      <root>
        <mxCell id="0" />
        <mxCell id="1" parent="0" />
        <mxCell id="Kdmxx6mo2VDTszddEweq-2" value="trainer" style="shape=umlLifeline;perimeter=lifelinePerimeter;whiteSpace=wrap;html=1;container=1;dropTarget=0;collapsible=0;recursiveResize=0;outlineConnect=0;portConstraint=eastwest;newEdgeStyle={&quot;curved&quot;:0,&quot;rounded&quot;:0};participant=umlActor;horizontal=1;verticalAlign=middle;align=center;spacingTop=0;spacing=2;spacingBottom=60;fillColor=#f8cecc;gradientColor=#ea6b66;strokeColor=#b85450;fontFamily=comfortaa;" vertex="1" parent="1">
          <mxGeometry x="288" y="32" width="20" height="588" as="geometry" />
        </mxCell>
        <mxCell id="Kdmxx6mo2VDTszddEweq-3" value="Client App" style="shape=umlLifeline;perimeter=lifelinePerimeter;whiteSpace=wrap;html=1;container=1;dropTarget=0;collapsible=0;recursiveResize=0;outlineConnect=0;portConstraint=eastwest;newEdgeStyle={&quot;curved&quot;:0,&quot;rounded&quot;:0};fillColor=#f8cecc;gradientColor=#ea6b66;strokeColor=#b85450;fontFamily=comfortaa;" vertex="1" parent="1">
          <mxGeometry x="440" y="32" width="150" height="1508" as="geometry" />
        </mxCell>
        <mxCell id="Kdmxx6mo2VDTszddEweq-86" value="" style="html=1;points=[[0,0,0,0,5],[0,1,0,0,-5],[1,0,0,0,5],[1,1,0,0,-5]];perimeter=orthogonalPerimeter;outlineConnect=0;targetShapes=umlLifeline;portConstraint=eastwest;newEdgeStyle={&quot;curved&quot;:0,&quot;rounded&quot;:0};fillColor=#f8cecc;gradientColor=#ea6b66;strokeColor=#b85450;fontFamily=comfortaa;" vertex="1" parent="Kdmxx6mo2VDTszddEweq-3">
          <mxGeometry x="71.5" y="56" width="10" height="1454" as="geometry" />
        </mxCell>
        <mxCell id="Kdmxx6mo2VDTszddEweq-93" value="" style="edgeStyle=elbowEdgeStyle;fontSize=12;html=1;endArrow=blockThin;endFill=1;rounded=0;fontFamily=comfortaa;" edge="1" parent="Kdmxx6mo2VDTszddEweq-3">
          <mxGeometry width="160" relative="1" as="geometry">
            <mxPoint x="-128" y="468" as="sourcePoint" />
            <mxPoint x="32" y="468" as="targetPoint" />
          </mxGeometry>
        </mxCell>
        <mxCell id="Kdmxx6mo2VDTszddEweq-94" value="επιλογη λιστα με activities" style="edgeLabel;html=1;align=center;verticalAlign=middle;resizable=0;points=[];fontFamily=comfortaa;" connectable="0" vertex="1" parent="Kdmxx6mo2VDTszddEweq-93">
          <mxGeometry x="0.4891" y="-1" relative="1" as="geometry">
            <mxPoint x="-38" y="-10" as="offset" />
          </mxGeometry>
        </mxCell>
        <mxCell id="Kdmxx6mo2VDTszddEweq-96" value="" style="edgeStyle=elbowEdgeStyle;fontSize=12;html=1;endArrow=none;endFill=0;rounded=0;startArrow=classic;startFill=1;dashed=1;fontFamily=comfortaa;" edge="1" parent="Kdmxx6mo2VDTszddEweq-3">
          <mxGeometry width="160" relative="1" as="geometry">
            <mxPoint x="-126" y="568" as="sourcePoint" />
            <mxPoint x="34" y="568" as="targetPoint" />
          </mxGeometry>
        </mxCell>
        <mxCell id="Kdmxx6mo2VDTszddEweq-97" value="εμφανιση λιστας" style="edgeLabel;html=1;align=center;verticalAlign=middle;resizable=0;points=[];labelBackgroundColor=none;fontFamily=comfortaa;" connectable="0" vertex="1" parent="Kdmxx6mo2VDTszddEweq-96">
          <mxGeometry x="0.2076" relative="1" as="geometry">
            <mxPoint x="-18" y="-9" as="offset" />
          </mxGeometry>
        </mxCell>
        <mxCell id="Kdmxx6mo2VDTszddEweq-101" value="" style="edgeStyle=elbowEdgeStyle;fontSize=12;html=1;endArrow=none;endFill=0;rounded=0;startArrow=classic;startFill=1;dashed=1;fontFamily=comfortaa;" edge="1" parent="Kdmxx6mo2VDTszddEweq-3">
          <mxGeometry width="160" relative="1" as="geometry">
            <mxPoint x="-127" y="398" as="sourcePoint" />
            <mxPoint x="33" y="398" as="targetPoint" />
          </mxGeometry>
        </mxCell>
        <mxCell id="Kdmxx6mo2VDTszddEweq-102" value="μηνυμα επιβεβαιωσης" style="edgeLabel;html=1;align=center;verticalAlign=middle;resizable=0;points=[];labelBackgroundColor=none;fontFamily=comfortaa;" connectable="0" vertex="1" parent="Kdmxx6mo2VDTszddEweq-101">
          <mxGeometry x="0.2076" relative="1" as="geometry">
            <mxPoint x="-18" y="-9" as="offset" />
          </mxGeometry>
        </mxCell>
        <mxCell id="Kdmxx6mo2VDTszddEweq-109" value="" style="edgeStyle=elbowEdgeStyle;fontSize=12;html=1;endArrow=blockThin;endFill=1;rounded=0;fontFamily=comfortaa;" edge="1" parent="Kdmxx6mo2VDTszddEweq-3">
          <mxGeometry width="160" relative="1" as="geometry">
            <mxPoint x="-127" y="708" as="sourcePoint" />
            <mxPoint x="33" y="708" as="targetPoint" />
          </mxGeometry>
        </mxCell>
        <mxCell id="Kdmxx6mo2VDTszddEweq-110" value="Αποστολή μηνύματος&amp;nbsp;&lt;div&gt;στους χρήστες&lt;/div&gt;" style="edgeLabel;html=1;align=center;verticalAlign=middle;resizable=0;points=[];fontFamily=comfortaa;labelBackgroundColor=none;" connectable="0" vertex="1" parent="Kdmxx6mo2VDTszddEweq-109">
          <mxGeometry x="0.3042" relative="1" as="geometry">
            <mxPoint x="-25" as="offset" />
          </mxGeometry>
        </mxCell>
        <mxCell id="Kdmxx6mo2VDTszddEweq-4" value="Database" style="shape=umlLifeline;perimeter=lifelinePerimeter;whiteSpace=wrap;html=1;container=1;dropTarget=0;collapsible=0;recursiveResize=0;outlineConnect=0;portConstraint=eastwest;newEdgeStyle={&quot;curved&quot;:0,&quot;rounded&quot;:0};fillColor=#f8cecc;gradientColor=#ea6b66;strokeColor=#b85450;fontFamily=comfortaa;" vertex="1" parent="1">
          <mxGeometry x="671" y="30" width="123" height="1510" as="geometry" />
        </mxCell>
        <mxCell id="Kdmxx6mo2VDTszddEweq-87" value="" style="html=1;points=[[0,0,0,0,5],[0,1,0,0,-5],[1,0,0,0,5],[1,1,0,0,-5]];perimeter=orthogonalPerimeter;outlineConnect=0;targetShapes=umlLifeline;portConstraint=eastwest;newEdgeStyle={&quot;curved&quot;:0,&quot;rounded&quot;:0};fillColor=#f8cecc;gradientColor=#ea6b66;strokeColor=#b85450;fontFamily=comfortaa;" vertex="1" parent="Kdmxx6mo2VDTszddEweq-4">
          <mxGeometry x="56.5" y="290" width="10" height="92" as="geometry" />
        </mxCell>
        <mxCell id="1YmXGS6Rd9u5P1QYLxjc-9" value="" style="html=1;points=[[0,0,0,0,5],[0,1,0,0,-5],[1,0,0,0,5],[1,1,0,0,-5]];perimeter=orthogonalPerimeter;outlineConnect=0;targetShapes=umlLifeline;portConstraint=eastwest;newEdgeStyle={&quot;curved&quot;:0,&quot;rounded&quot;:0};fillColor=#f8cecc;gradientColor=#ea6b66;strokeColor=#b85450;fontFamily=comfortaa;" vertex="1" parent="Kdmxx6mo2VDTszddEweq-4">
          <mxGeometry x="56.5" y="470" width="10" height="92" as="geometry" />
        </mxCell>
        <mxCell id="1YmXGS6Rd9u5P1QYLxjc-10" value="" style="html=1;points=[[0,0,0,0,5],[0,1,0,0,-5],[1,0,0,0,5],[1,1,0,0,-5]];perimeter=orthogonalPerimeter;outlineConnect=0;targetShapes=umlLifeline;portConstraint=eastwest;newEdgeStyle={&quot;curved&quot;:0,&quot;rounded&quot;:0};fillColor=#f8cecc;gradientColor=#ea6b66;strokeColor=#b85450;fontFamily=comfortaa;" vertex="1" parent="Kdmxx6mo2VDTszddEweq-4">
          <mxGeometry x="56.5" y="610" width="10" height="92" as="geometry" />
        </mxCell>
        <mxCell id="Kdmxx6mo2VDTszddEweq-6" value="&lt;font style=&quot;font-size: 10px;&quot;&gt;Βασική ροή&lt;/font&gt;" style="shape=umlFrame;whiteSpace=wrap;html=1;pointerEvents=0;fillColor=#f8cecc;gradientColor=#ea6b66;strokeColor=#b85450;fontFamily=comfortaa;" vertex="1" parent="1">
          <mxGeometry x="220" y="88" width="574" height="372" as="geometry" />
        </mxCell>
        <mxCell id="Kdmxx6mo2VDTszddEweq-9" value="" style="edgeStyle=elbowEdgeStyle;fontSize=12;html=1;endArrow=blockThin;endFill=1;rounded=0;fontFamily=comfortaa;" edge="1" parent="1">
          <mxGeometry width="160" relative="1" as="geometry">
            <mxPoint x="319" y="117" as="sourcePoint" />
            <mxPoint x="479" y="117" as="targetPoint" />
          </mxGeometry>
        </mxCell>
        <mxCell id="Kdmxx6mo2VDTszddEweq-10" value="Δημιουργια νεου activity" style="edgeLabel;html=1;align=center;verticalAlign=middle;resizable=0;points=[];fontSize=12;fontFamily=comfortaa;" connectable="0" vertex="1" parent="Kdmxx6mo2VDTszddEweq-9">
          <mxGeometry x="0.4891" y="-1" relative="1" as="geometry">
            <mxPoint x="-38" y="-10" as="offset" />
          </mxGeometry>
        </mxCell>
        <mxCell id="Kdmxx6mo2VDTszddEweq-22" value="" style="edgeStyle=elbowEdgeStyle;fontSize=12;html=1;endArrow=blockThin;endFill=1;rounded=0;fontFamily=comfortaa;" edge="1" parent="1">
          <mxGeometry width="160" relative="1" as="geometry">
            <mxPoint x="540" y="360" as="sourcePoint" />
            <mxPoint x="700" y="360" as="targetPoint" />
          </mxGeometry>
        </mxCell>
        <mxCell id="Kdmxx6mo2VDTszddEweq-23" value="Προσθήκη activity" style="edgeLabel;html=1;align=center;verticalAlign=middle;resizable=0;points=[];fontFamily=comfortaa;" connectable="0" vertex="1" parent="Kdmxx6mo2VDTszddEweq-22">
          <mxGeometry x="0.3042" relative="1" as="geometry">
            <mxPoint x="-27" y="-10" as="offset" />
          </mxGeometry>
        </mxCell>
        <mxCell id="Kdmxx6mo2VDTszddEweq-29" value="Σελιδα επιλογης ωρας&lt;div&gt;και ημερομηνιας&lt;/div&gt;" style="edgeStyle=elbowEdgeStyle;fontSize=12;html=1;endArrow=none;endFill=0;rounded=0;startArrow=classic;startFill=1;dashed=1;elbow=vertical;labelBackgroundColor=none;fontFamily=comfortaa;" edge="1" parent="1">
          <mxGeometry width="160" relative="1" as="geometry">
            <mxPoint x="318" y="160" as="sourcePoint" />
            <mxPoint x="478" y="160" as="targetPoint" />
          </mxGeometry>
        </mxCell>
        <mxCell id="Kdmxx6mo2VDTszddEweq-31" value="" style="edgeStyle=elbowEdgeStyle;fontSize=12;html=1;endArrow=none;endFill=0;rounded=0;startArrow=classic;startFill=1;dashed=1;fontFamily=comfortaa;" edge="1" parent="1">
          <mxGeometry width="160" relative="1" as="geometry">
            <mxPoint x="542" y="384" as="sourcePoint" />
            <mxPoint x="702" y="384" as="targetPoint" />
          </mxGeometry>
        </mxCell>
        <mxCell id="Kdmxx6mo2VDTszddEweq-32" value="Κατάσταση προσθήκης" style="edgeLabel;html=1;align=center;verticalAlign=middle;resizable=0;points=[];fontFamily=comfortaa;" connectable="0" vertex="1" parent="Kdmxx6mo2VDTszddEweq-31">
          <mxGeometry x="0.3549" y="1" relative="1" as="geometry">
            <mxPoint x="-26" y="-8" as="offset" />
          </mxGeometry>
        </mxCell>
        <mxCell id="Kdmxx6mo2VDTszddEweq-83" value="" style="html=1;points=[[0,0,0,0,5],[0,1,0,0,-5],[1,0,0,0,5],[1,1,0,0,-5]];perimeter=orthogonalPerimeter;outlineConnect=0;targetShapes=umlLifeline;portConstraint=eastwest;newEdgeStyle={&quot;curved&quot;:0,&quot;rounded&quot;:0};fillColor=#f8cecc;gradientColor=#ea6b66;strokeColor=#b85450;fontFamily=comfortaa;" vertex="1" parent="1">
          <mxGeometry x="293" y="88" width="10" height="1452" as="geometry" />
        </mxCell>
        <mxCell id="wWLrYVzjK2N0WrkwGWKd-2" value="" style="edgeStyle=elbowEdgeStyle;fontSize=12;html=1;endArrow=blockThin;endFill=1;rounded=0;fontFamily=comfortaa;" edge="1" parent="1">
          <mxGeometry width="160" relative="1" as="geometry">
            <mxPoint x="320" y="220" as="sourcePoint" />
            <mxPoint x="480" y="220" as="targetPoint" />
          </mxGeometry>
        </mxCell>
        <mxCell id="wWLrYVzjK2N0WrkwGWKd-3" value="αντιγραφή preset για&amp;nbsp;&lt;div style=&quot;font-size: 12px;&quot;&gt;εβδομαδιαία χρήση&lt;/div&gt;" style="edgeLabel;html=1;align=center;verticalAlign=middle;resizable=0;points=[];labelBackgroundColor=none;fontSize=12;fontFamily=comfortaa;" connectable="0" vertex="1" parent="wWLrYVzjK2N0WrkwGWKd-2">
          <mxGeometry x="0.4891" y="-1" relative="1" as="geometry">
            <mxPoint x="-38" y="-1" as="offset" />
          </mxGeometry>
        </mxCell>
        <mxCell id="wWLrYVzjK2N0WrkwGWKd-4" value="Σελιδα συπλήρωσης&amp;nbsp;&lt;div&gt;πληροφοριων&lt;/div&gt;" style="edgeStyle=elbowEdgeStyle;fontSize=12;html=1;endArrow=none;endFill=0;rounded=0;startArrow=classic;startFill=1;dashed=1;elbow=vertical;labelBackgroundColor=none;fontFamily=comfortaa;" edge="1" parent="1">
          <mxGeometry width="160" relative="1" as="geometry">
            <mxPoint x="318" y="270" as="sourcePoint" />
            <mxPoint x="478" y="270" as="targetPoint" />
            <mxPoint as="offset" />
          </mxGeometry>
        </mxCell>
        <mxCell id="wWLrYVzjK2N0WrkwGWKd-5" value="" style="edgeStyle=elbowEdgeStyle;fontSize=12;html=1;endArrow=blockThin;endFill=1;rounded=0;fontFamily=comfortaa;" edge="1" parent="1">
          <mxGeometry width="160" relative="1" as="geometry">
            <mxPoint x="320" y="320" as="sourcePoint" />
            <mxPoint x="480" y="320" as="targetPoint" />
          </mxGeometry>
        </mxCell>
        <mxCell id="wWLrYVzjK2N0WrkwGWKd-6" value="αποθηκευση&lt;div&gt;&lt;br&gt;&lt;/div&gt;" style="edgeLabel;html=1;align=center;verticalAlign=middle;resizable=0;points=[];labelBackgroundColor=none;fontSize=12;fontFamily=comfortaa;" connectable="0" vertex="1" parent="wWLrYVzjK2N0WrkwGWKd-5">
          <mxGeometry x="0.4891" y="-1" relative="1" as="geometry">
            <mxPoint x="-38" y="-1" as="offset" />
          </mxGeometry>
        </mxCell>
        <mxCell id="1YmXGS6Rd9u5P1QYLxjc-1" value="" style="endArrow=block;endFill=1;html=1;edgeStyle=orthogonalEdgeStyle;align=left;verticalAlign=top;rounded=0;fontFamily=comfortaa;" edge="1" parent="1">
          <mxGeometry x="-1" relative="1" as="geometry">
            <mxPoint x="550" y="520" as="sourcePoint" />
            <mxPoint x="710" y="520" as="targetPoint" />
          </mxGeometry>
        </mxCell>
        <mxCell id="1YmXGS6Rd9u5P1QYLxjc-2" value="Αίτημα για φόρτωση του" style="edgeLabel;html=1;align=center;verticalAlign=middle;resizable=0;points=[];fontFamily=comfortaa;" connectable="0" vertex="1" parent="1YmXGS6Rd9u5P1QYLxjc-1">
          <mxGeometry x="0.3" y="-1" relative="1" as="geometry">
            <mxPoint x="-27" y="-9" as="offset" />
          </mxGeometry>
        </mxCell>
        <mxCell id="1YmXGS6Rd9u5P1QYLxjc-3" value="activities list" style="edgeLabel;html=1;align=center;verticalAlign=middle;resizable=0;points=[];fontFamily=comfortaa;" connectable="0" vertex="1" parent="1YmXGS6Rd9u5P1QYLxjc-1">
          <mxGeometry x="0.231" y="-3" relative="1" as="geometry">
            <mxPoint x="-19" y="5" as="offset" />
          </mxGeometry>
        </mxCell>
        <mxCell id="1YmXGS6Rd9u5P1QYLxjc-4" value="" style="endArrow=none;endFill=0;html=1;edgeStyle=orthogonalEdgeStyle;align=left;verticalAlign=top;rounded=0;startArrow=classic;startFill=1;fontFamily=comfortaa;dashed=1;" edge="1" parent="1">
          <mxGeometry x="-1" relative="1" as="geometry">
            <mxPoint x="555" y="574" as="sourcePoint" />
            <mxPoint x="715" y="574" as="targetPoint" />
          </mxGeometry>
        </mxCell>
        <mxCell id="1YmXGS6Rd9u5P1QYLxjc-5" value="Επιστροφή activities" style="edgeLabel;html=1;align=center;verticalAlign=middle;resizable=0;points=[];fontFamily=comfortaa;" connectable="0" vertex="1" parent="1YmXGS6Rd9u5P1QYLxjc-4">
          <mxGeometry x="-0.1246" relative="1" as="geometry">
            <mxPoint x="23" y="-12" as="offset" />
          </mxGeometry>
        </mxCell>
        <mxCell id="1YmXGS6Rd9u5P1QYLxjc-6" value="list" style="edgeLabel;html=1;align=center;verticalAlign=middle;resizable=0;points=[];fontFamily=comfortaa;" connectable="0" vertex="1" parent="1YmXGS6Rd9u5P1QYLxjc-4">
          <mxGeometry x="0.4185" y="-2" relative="1" as="geometry">
            <mxPoint x="-21" y="5" as="offset" />
          </mxGeometry>
        </mxCell>
        <mxCell id="Kdmxx6mo2VDTszddEweq-104" value="" style="edgeStyle=elbowEdgeStyle;fontSize=12;html=1;endArrow=blockThin;endFill=1;rounded=0;fontFamily=comfortaa;" edge="1" parent="1">
          <mxGeometry width="160" relative="1" as="geometry">
            <mxPoint x="539.5" y="660" as="sourcePoint" />
            <mxPoint x="699.5" y="660" as="targetPoint" />
          </mxGeometry>
        </mxCell>
        <mxCell id="Kdmxx6mo2VDTszddEweq-105" value="Προσθήκη τροποίησης&amp;nbsp;&lt;div&gt;στο activity&lt;/div&gt;" style="edgeLabel;html=1;align=center;verticalAlign=middle;resizable=0;points=[];fontFamily=comfortaa;labelBackgroundColor=none;" connectable="0" vertex="1" parent="Kdmxx6mo2VDTszddEweq-104">
          <mxGeometry x="0.3042" relative="1" as="geometry">
            <mxPoint x="-27" as="offset" />
          </mxGeometry>
        </mxCell>
        <mxCell id="Kdmxx6mo2VDTszddEweq-106" value="" style="edgeStyle=elbowEdgeStyle;fontSize=12;html=1;endArrow=none;endFill=0;rounded=0;startArrow=classic;startFill=1;dashed=1;fontFamily=comfortaa;" edge="1" parent="1">
          <mxGeometry width="160" relative="1" as="geometry">
            <mxPoint x="541.5" y="704" as="sourcePoint" />
            <mxPoint x="701.5" y="704" as="targetPoint" />
          </mxGeometry>
        </mxCell>
        <mxCell id="Kdmxx6mo2VDTszddEweq-107" value="Κατάσταση προσθήκης" style="edgeLabel;html=1;align=center;verticalAlign=middle;resizable=0;points=[];fontFamily=comfortaa;" connectable="0" vertex="1" parent="Kdmxx6mo2VDTszddEweq-106">
          <mxGeometry x="0.3549" y="1" relative="1" as="geometry">
            <mxPoint x="-26" y="-8" as="offset" />
          </mxGeometry>
        </mxCell>
        <mxCell id="1YmXGS6Rd9u5P1QYLxjc-7" value="" style="edgeStyle=elbowEdgeStyle;fontSize=12;html=1;endArrow=blockThin;endFill=1;rounded=0;fontFamily=comfortaa;" edge="1" parent="1">
          <mxGeometry width="160" relative="1" as="geometry">
            <mxPoint x="320" y="630" as="sourcePoint" />
            <mxPoint x="470" y="630" as="targetPoint" />
          </mxGeometry>
        </mxCell>
        <mxCell id="1YmXGS6Rd9u5P1QYLxjc-8" value="επιλογή και τροποίηση&amp;nbsp;&lt;div&gt;activity&lt;/div&gt;" style="edgeLabel;html=1;align=center;verticalAlign=middle;resizable=0;points=[];fontFamily=comfortaa;labelBackgroundColor=none;" connectable="0" vertex="1" parent="1YmXGS6Rd9u5P1QYLxjc-7">
          <mxGeometry x="0.3042" relative="1" as="geometry">
            <mxPoint x="-27" as="offset" />
          </mxGeometry>
        </mxCell>
        <mxCell id="Kdmxx6mo2VDTszddEweq-65" value="&lt;font style=&quot;&quot;&gt;&lt;font style=&quot;font-size: 9px;&quot;&gt;Εναλλακτική ροή 1&lt;/font&gt;&lt;br&gt;&lt;/font&gt;" style="shape=umlFrame;whiteSpace=wrap;html=1;pointerEvents=0;fillColor=#f8cecc;gradientColor=#ea6b66;strokeColor=#b85450;fontFamily=comfortaa;" vertex="1" parent="1">
          <mxGeometry x="220" y="460" width="574" height="302" as="geometry" />
        </mxCell>
        <mxCell id="1YmXGS6Rd9u5P1QYLxjc-12" value="" style="edgeStyle=elbowEdgeStyle;fontSize=12;html=1;endArrow=blockThin;endFill=1;rounded=0;fontFamily=comfortaa;" edge="1" parent="1">
          <mxGeometry width="160" relative="1" as="geometry">
            <mxPoint x="312" y="802" as="sourcePoint" />
            <mxPoint x="472" y="802" as="targetPoint" />
          </mxGeometry>
        </mxCell>
        <mxCell id="1YmXGS6Rd9u5P1QYLxjc-13" value="επιλογη λιστα με activities" style="edgeLabel;html=1;align=center;verticalAlign=middle;resizable=0;points=[];fontFamily=comfortaa;" connectable="0" vertex="1" parent="1YmXGS6Rd9u5P1QYLxjc-12">
          <mxGeometry x="0.4891" y="-1" relative="1" as="geometry">
            <mxPoint x="-38" y="-10" as="offset" />
          </mxGeometry>
        </mxCell>
        <mxCell id="1YmXGS6Rd9u5P1QYLxjc-14" value="" style="edgeStyle=elbowEdgeStyle;fontSize=12;html=1;endArrow=none;endFill=0;rounded=0;startArrow=classic;startFill=1;dashed=1;fontFamily=comfortaa;" edge="1" parent="1">
          <mxGeometry width="160" relative="1" as="geometry">
            <mxPoint x="314" y="902" as="sourcePoint" />
            <mxPoint x="474" y="902" as="targetPoint" />
          </mxGeometry>
        </mxCell>
        <mxCell id="1YmXGS6Rd9u5P1QYLxjc-15" value="εμφανιση λιστας" style="edgeLabel;html=1;align=center;verticalAlign=middle;resizable=0;points=[];labelBackgroundColor=none;fontFamily=comfortaa;" connectable="0" vertex="1" parent="1YmXGS6Rd9u5P1QYLxjc-14">
          <mxGeometry x="0.2076" relative="1" as="geometry">
            <mxPoint x="-18" y="-9" as="offset" />
          </mxGeometry>
        </mxCell>
        <mxCell id="1YmXGS6Rd9u5P1QYLxjc-16" value="" style="edgeStyle=elbowEdgeStyle;fontSize=12;html=1;endArrow=blockThin;endFill=1;rounded=0;fontFamily=comfortaa;" edge="1" parent="1">
          <mxGeometry width="160" relative="1" as="geometry">
            <mxPoint x="313" y="1042" as="sourcePoint" />
            <mxPoint x="473" y="1042" as="targetPoint" />
          </mxGeometry>
        </mxCell>
        <mxCell id="1YmXGS6Rd9u5P1QYLxjc-17" value="Αποστολή μηνύματος&amp;nbsp;&lt;div&gt;στους χρήστες&lt;/div&gt;" style="edgeLabel;html=1;align=center;verticalAlign=middle;resizable=0;points=[];fontFamily=comfortaa;labelBackgroundColor=none;" connectable="0" vertex="1" parent="1YmXGS6Rd9u5P1QYLxjc-16">
          <mxGeometry x="0.3042" relative="1" as="geometry">
            <mxPoint x="-25" as="offset" />
          </mxGeometry>
        </mxCell>
        <mxCell id="1YmXGS6Rd9u5P1QYLxjc-18" value="" style="html=1;points=[[0,0,0,0,5],[0,1,0,0,-5],[1,0,0,0,5],[1,1,0,0,-5]];perimeter=orthogonalPerimeter;outlineConnect=0;targetShapes=umlLifeline;portConstraint=eastwest;newEdgeStyle={&quot;curved&quot;:0,&quot;rounded&quot;:0};fillColor=#f8cecc;gradientColor=#ea6b66;strokeColor=#b85450;fontFamily=comfortaa;" vertex="1" parent="1">
          <mxGeometry x="727.5" y="802" width="10" height="92" as="geometry" />
        </mxCell>
        <mxCell id="1YmXGS6Rd9u5P1QYLxjc-19" value="" style="html=1;points=[[0,0,0,0,5],[0,1,0,0,-5],[1,0,0,0,5],[1,1,0,0,-5]];perimeter=orthogonalPerimeter;outlineConnect=0;targetShapes=umlLifeline;portConstraint=eastwest;newEdgeStyle={&quot;curved&quot;:0,&quot;rounded&quot;:0};fillColor=#f8cecc;gradientColor=#ea6b66;strokeColor=#b85450;fontFamily=comfortaa;" vertex="1" parent="1">
          <mxGeometry x="727.5" y="942" width="10" height="92" as="geometry" />
        </mxCell>
        <mxCell id="1YmXGS6Rd9u5P1QYLxjc-20" value="" style="endArrow=block;endFill=1;html=1;edgeStyle=orthogonalEdgeStyle;align=left;verticalAlign=top;rounded=0;fontFamily=comfortaa;" edge="1" parent="1">
          <mxGeometry x="-1" relative="1" as="geometry">
            <mxPoint x="550" y="822" as="sourcePoint" />
            <mxPoint x="710" y="822" as="targetPoint" />
          </mxGeometry>
        </mxCell>
        <mxCell id="1YmXGS6Rd9u5P1QYLxjc-21" value="Αίτημα για φόρτωση του" style="edgeLabel;html=1;align=center;verticalAlign=middle;resizable=0;points=[];fontFamily=comfortaa;" connectable="0" vertex="1" parent="1YmXGS6Rd9u5P1QYLxjc-20">
          <mxGeometry x="0.3" y="-1" relative="1" as="geometry">
            <mxPoint x="-27" y="-9" as="offset" />
          </mxGeometry>
        </mxCell>
        <mxCell id="1YmXGS6Rd9u5P1QYLxjc-22" value="activities list" style="edgeLabel;html=1;align=center;verticalAlign=middle;resizable=0;points=[];fontFamily=comfortaa;" connectable="0" vertex="1" parent="1YmXGS6Rd9u5P1QYLxjc-20">
          <mxGeometry x="0.231" y="-3" relative="1" as="geometry">
            <mxPoint x="-19" y="5" as="offset" />
          </mxGeometry>
        </mxCell>
        <mxCell id="1YmXGS6Rd9u5P1QYLxjc-23" value="" style="endArrow=none;endFill=0;html=1;edgeStyle=orthogonalEdgeStyle;align=left;verticalAlign=top;rounded=0;startArrow=classic;startFill=1;fontFamily=comfortaa;dashed=1;" edge="1" parent="1">
          <mxGeometry x="-1" relative="1" as="geometry">
            <mxPoint x="555" y="876" as="sourcePoint" />
            <mxPoint x="715" y="876" as="targetPoint" />
          </mxGeometry>
        </mxCell>
        <mxCell id="1YmXGS6Rd9u5P1QYLxjc-24" value="Επιστροφή activities" style="edgeLabel;html=1;align=center;verticalAlign=middle;resizable=0;points=[];fontFamily=comfortaa;" connectable="0" vertex="1" parent="1YmXGS6Rd9u5P1QYLxjc-23">
          <mxGeometry x="-0.1246" relative="1" as="geometry">
            <mxPoint x="23" y="-12" as="offset" />
          </mxGeometry>
        </mxCell>
        <mxCell id="1YmXGS6Rd9u5P1QYLxjc-25" value="list" style="edgeLabel;html=1;align=center;verticalAlign=middle;resizable=0;points=[];fontFamily=comfortaa;" connectable="0" vertex="1" parent="1YmXGS6Rd9u5P1QYLxjc-23">
          <mxGeometry x="0.4185" y="-2" relative="1" as="geometry">
            <mxPoint x="-21" y="5" as="offset" />
          </mxGeometry>
        </mxCell>
        <mxCell id="1YmXGS6Rd9u5P1QYLxjc-26" value="" style="edgeStyle=elbowEdgeStyle;fontSize=12;html=1;endArrow=blockThin;endFill=1;rounded=0;fontFamily=comfortaa;" edge="1" parent="1">
          <mxGeometry width="160" relative="1" as="geometry">
            <mxPoint x="539.5" y="970" as="sourcePoint" />
            <mxPoint x="699.5" y="970" as="targetPoint" />
          </mxGeometry>
        </mxCell>
        <mxCell id="1YmXGS6Rd9u5P1QYLxjc-27" value="ανανεωση ΒΔ&lt;div&gt;&lt;br&gt;&lt;/div&gt;" style="edgeLabel;html=1;align=center;verticalAlign=middle;resizable=0;points=[];fontFamily=comfortaa;labelBackgroundColor=none;" connectable="0" vertex="1" parent="1YmXGS6Rd9u5P1QYLxjc-26">
          <mxGeometry x="0.3042" relative="1" as="geometry">
            <mxPoint x="-27" as="offset" />
          </mxGeometry>
        </mxCell>
        <mxCell id="1YmXGS6Rd9u5P1QYLxjc-28" value="" style="edgeStyle=elbowEdgeStyle;fontSize=12;html=1;endArrow=none;endFill=0;rounded=0;startArrow=classic;startFill=1;dashed=1;fontFamily=comfortaa;" edge="1" parent="1">
          <mxGeometry width="160" relative="1" as="geometry">
            <mxPoint x="541.5" y="1014" as="sourcePoint" />
            <mxPoint x="701.5" y="1014" as="targetPoint" />
          </mxGeometry>
        </mxCell>
        <mxCell id="1YmXGS6Rd9u5P1QYLxjc-29" value="Κατάσταση προσθήκης&lt;div&gt;αλλαγής&lt;/div&gt;" style="edgeLabel;html=1;align=center;verticalAlign=middle;resizable=0;points=[];fontFamily=comfortaa;labelBackgroundColor=none;" connectable="0" vertex="1" parent="1YmXGS6Rd9u5P1QYLxjc-28">
          <mxGeometry x="0.3549" y="1" relative="1" as="geometry">
            <mxPoint x="-26" y="-3" as="offset" />
          </mxGeometry>
        </mxCell>
        <mxCell id="1YmXGS6Rd9u5P1QYLxjc-30" value="" style="edgeStyle=elbowEdgeStyle;fontSize=12;html=1;endArrow=blockThin;endFill=1;rounded=0;fontFamily=comfortaa;" edge="1" parent="1">
          <mxGeometry width="160" relative="1" as="geometry">
            <mxPoint x="320" y="932" as="sourcePoint" />
            <mxPoint x="470" y="932" as="targetPoint" />
          </mxGeometry>
        </mxCell>
        <mxCell id="1YmXGS6Rd9u5P1QYLxjc-31" value="επιλογή ακύρωση&amp;nbsp;&lt;div&gt;activity&lt;/div&gt;" style="edgeLabel;html=1;align=center;verticalAlign=middle;resizable=0;points=[];fontFamily=comfortaa;labelBackgroundColor=none;" connectable="0" vertex="1" parent="1YmXGS6Rd9u5P1QYLxjc-30">
          <mxGeometry x="0.3042" relative="1" as="geometry">
            <mxPoint x="-27" as="offset" />
          </mxGeometry>
        </mxCell>
        <mxCell id="1YmXGS6Rd9u5P1QYLxjc-32" value="&lt;font style=&quot;&quot;&gt;&lt;font style=&quot;font-size: 9px;&quot;&gt;Εναλλακτική ροή 2&lt;/font&gt;&lt;br&gt;&lt;/font&gt;" style="shape=umlFrame;whiteSpace=wrap;html=1;pointerEvents=0;fillColor=#f8cecc;gradientColor=#ea6b66;strokeColor=#b85450;fontFamily=comfortaa;" vertex="1" parent="1">
          <mxGeometry x="220" y="762" width="574" height="302" as="geometry" />
        </mxCell>
        <mxCell id="1YmXGS6Rd9u5P1QYLxjc-33" value="" style="edgeStyle=elbowEdgeStyle;fontSize=12;html=1;endArrow=blockThin;endFill=1;rounded=0;fontFamily=comfortaa;" edge="1" parent="1">
          <mxGeometry width="160" relative="1" as="geometry">
            <mxPoint x="320" y="960" as="sourcePoint" />
            <mxPoint x="470" y="960" as="targetPoint" />
          </mxGeometry>
        </mxCell>
        <mxCell id="1YmXGS6Rd9u5P1QYLxjc-34" value="προσθηκη αιτιολογιας&lt;div&gt;ακύρωσης activity&lt;/div&gt;" style="edgeLabel;html=1;align=center;verticalAlign=middle;resizable=0;points=[];fontFamily=comfortaa;labelBackgroundColor=none;" connectable="0" vertex="1" parent="1YmXGS6Rd9u5P1QYLxjc-33">
          <mxGeometry x="0.3042" relative="1" as="geometry">
            <mxPoint x="-27" as="offset" />
          </mxGeometry>
        </mxCell>
        <mxCell id="1YmXGS6Rd9u5P1QYLxjc-36" value="" style="edgeStyle=elbowEdgeStyle;fontSize=12;html=1;endArrow=blockThin;endFill=1;rounded=0;fontFamily=comfortaa;" edge="1" parent="1">
          <mxGeometry width="160" relative="1" as="geometry">
            <mxPoint x="312" y="1104" as="sourcePoint" />
            <mxPoint x="472" y="1104" as="targetPoint" />
          </mxGeometry>
        </mxCell>
        <mxCell id="1YmXGS6Rd9u5P1QYLxjc-37" value="επιλογη λιστα με activities" style="edgeLabel;html=1;align=center;verticalAlign=middle;resizable=0;points=[];fontFamily=comfortaa;" connectable="0" vertex="1" parent="1YmXGS6Rd9u5P1QYLxjc-36">
          <mxGeometry x="0.4891" y="-1" relative="1" as="geometry">
            <mxPoint x="-38" y="-10" as="offset" />
          </mxGeometry>
        </mxCell>
        <mxCell id="1YmXGS6Rd9u5P1QYLxjc-38" value="" style="edgeStyle=elbowEdgeStyle;fontSize=12;html=1;endArrow=none;endFill=0;rounded=0;startArrow=classic;startFill=1;dashed=1;fontFamily=comfortaa;" edge="1" parent="1">
          <mxGeometry width="160" relative="1" as="geometry">
            <mxPoint x="314" y="1204" as="sourcePoint" />
            <mxPoint x="474" y="1204" as="targetPoint" />
          </mxGeometry>
        </mxCell>
        <mxCell id="1YmXGS6Rd9u5P1QYLxjc-39" value="εμφανιση λιστας" style="edgeLabel;html=1;align=center;verticalAlign=middle;resizable=0;points=[];labelBackgroundColor=none;fontFamily=comfortaa;" connectable="0" vertex="1" parent="1YmXGS6Rd9u5P1QYLxjc-38">
          <mxGeometry x="0.2076" relative="1" as="geometry">
            <mxPoint x="-18" y="-9" as="offset" />
          </mxGeometry>
        </mxCell>
        <mxCell id="1YmXGS6Rd9u5P1QYLxjc-40" value="" style="edgeStyle=elbowEdgeStyle;fontSize=12;html=1;endArrow=blockThin;endFill=1;rounded=0;fontFamily=comfortaa;" edge="1" parent="1">
          <mxGeometry width="160" relative="1" as="geometry">
            <mxPoint x="313" y="1344" as="sourcePoint" />
            <mxPoint x="473" y="1344" as="targetPoint" />
          </mxGeometry>
        </mxCell>
        <mxCell id="1YmXGS6Rd9u5P1QYLxjc-41" value="Αποστολή μηνύματος&amp;nbsp;&lt;div&gt;στους χρήστες&lt;/div&gt;" style="edgeLabel;html=1;align=center;verticalAlign=middle;resizable=0;points=[];fontFamily=comfortaa;labelBackgroundColor=none;" connectable="0" vertex="1" parent="1YmXGS6Rd9u5P1QYLxjc-40">
          <mxGeometry x="0.3042" relative="1" as="geometry">
            <mxPoint x="-25" as="offset" />
          </mxGeometry>
        </mxCell>
        <mxCell id="1YmXGS6Rd9u5P1QYLxjc-42" value="" style="html=1;points=[[0,0,0,0,5],[0,1,0,0,-5],[1,0,0,0,5],[1,1,0,0,-5]];perimeter=orthogonalPerimeter;outlineConnect=0;targetShapes=umlLifeline;portConstraint=eastwest;newEdgeStyle={&quot;curved&quot;:0,&quot;rounded&quot;:0};fillColor=#f8cecc;gradientColor=#ea6b66;strokeColor=#b85450;fontFamily=comfortaa;" vertex="1" parent="1">
          <mxGeometry x="727.5" y="1104" width="10" height="92" as="geometry" />
        </mxCell>
        <mxCell id="1YmXGS6Rd9u5P1QYLxjc-43" value="" style="html=1;points=[[0,0,0,0,5],[0,1,0,0,-5],[1,0,0,0,5],[1,1,0,0,-5]];perimeter=orthogonalPerimeter;outlineConnect=0;targetShapes=umlLifeline;portConstraint=eastwest;newEdgeStyle={&quot;curved&quot;:0,&quot;rounded&quot;:0};fillColor=#f8cecc;gradientColor=#ea6b66;strokeColor=#b85450;fontFamily=comfortaa;" vertex="1" parent="1">
          <mxGeometry x="727.5" y="1244" width="10" height="92" as="geometry" />
        </mxCell>
        <mxCell id="1YmXGS6Rd9u5P1QYLxjc-44" value="" style="endArrow=block;endFill=1;html=1;edgeStyle=orthogonalEdgeStyle;align=left;verticalAlign=top;rounded=0;fontFamily=comfortaa;" edge="1" parent="1">
          <mxGeometry x="-1" relative="1" as="geometry">
            <mxPoint x="550" y="1124" as="sourcePoint" />
            <mxPoint x="710" y="1124" as="targetPoint" />
          </mxGeometry>
        </mxCell>
        <mxCell id="1YmXGS6Rd9u5P1QYLxjc-45" value="Αίτημα για φόρτωση του" style="edgeLabel;html=1;align=center;verticalAlign=middle;resizable=0;points=[];fontFamily=comfortaa;" connectable="0" vertex="1" parent="1YmXGS6Rd9u5P1QYLxjc-44">
          <mxGeometry x="0.3" y="-1" relative="1" as="geometry">
            <mxPoint x="-27" y="-9" as="offset" />
          </mxGeometry>
        </mxCell>
        <mxCell id="1YmXGS6Rd9u5P1QYLxjc-46" value="activities list" style="edgeLabel;html=1;align=center;verticalAlign=middle;resizable=0;points=[];fontFamily=comfortaa;" connectable="0" vertex="1" parent="1YmXGS6Rd9u5P1QYLxjc-44">
          <mxGeometry x="0.231" y="-3" relative="1" as="geometry">
            <mxPoint x="-19" y="5" as="offset" />
          </mxGeometry>
        </mxCell>
        <mxCell id="1YmXGS6Rd9u5P1QYLxjc-47" value="" style="endArrow=none;endFill=0;html=1;edgeStyle=orthogonalEdgeStyle;align=left;verticalAlign=top;rounded=0;startArrow=classic;startFill=1;fontFamily=comfortaa;dashed=1;" edge="1" parent="1">
          <mxGeometry x="-1" relative="1" as="geometry">
            <mxPoint x="555" y="1178" as="sourcePoint" />
            <mxPoint x="715" y="1178" as="targetPoint" />
          </mxGeometry>
        </mxCell>
        <mxCell id="1YmXGS6Rd9u5P1QYLxjc-48" value="Επιστροφή activities" style="edgeLabel;html=1;align=center;verticalAlign=middle;resizable=0;points=[];fontFamily=comfortaa;" connectable="0" vertex="1" parent="1YmXGS6Rd9u5P1QYLxjc-47">
          <mxGeometry x="-0.1246" relative="1" as="geometry">
            <mxPoint x="23" y="-12" as="offset" />
          </mxGeometry>
        </mxCell>
        <mxCell id="1YmXGS6Rd9u5P1QYLxjc-49" value="list" style="edgeLabel;html=1;align=center;verticalAlign=middle;resizable=0;points=[];fontFamily=comfortaa;" connectable="0" vertex="1" parent="1YmXGS6Rd9u5P1QYLxjc-47">
          <mxGeometry x="0.4185" y="-2" relative="1" as="geometry">
            <mxPoint x="-21" y="5" as="offset" />
          </mxGeometry>
        </mxCell>
        <mxCell id="1YmXGS6Rd9u5P1QYLxjc-50" value="" style="edgeStyle=elbowEdgeStyle;fontSize=12;html=1;endArrow=blockThin;endFill=1;rounded=0;fontFamily=comfortaa;" edge="1" parent="1">
          <mxGeometry width="160" relative="1" as="geometry">
            <mxPoint x="539.5" y="1272" as="sourcePoint" />
            <mxPoint x="699.5" y="1272" as="targetPoint" />
          </mxGeometry>
        </mxCell>
        <mxCell id="1YmXGS6Rd9u5P1QYLxjc-51" value="ανανεωση ΒΔ&lt;div&gt;&lt;br&gt;&lt;/div&gt;" style="edgeLabel;html=1;align=center;verticalAlign=middle;resizable=0;points=[];fontFamily=comfortaa;labelBackgroundColor=none;" connectable="0" vertex="1" parent="1YmXGS6Rd9u5P1QYLxjc-50">
          <mxGeometry x="0.3042" relative="1" as="geometry">
            <mxPoint x="-27" as="offset" />
          </mxGeometry>
        </mxCell>
        <mxCell id="1YmXGS6Rd9u5P1QYLxjc-52" value="" style="edgeStyle=elbowEdgeStyle;fontSize=12;html=1;endArrow=none;endFill=0;rounded=0;startArrow=classic;startFill=1;dashed=1;fontFamily=comfortaa;" edge="1" parent="1">
          <mxGeometry width="160" relative="1" as="geometry">
            <mxPoint x="541.5" y="1316" as="sourcePoint" />
            <mxPoint x="701.5" y="1316" as="targetPoint" />
          </mxGeometry>
        </mxCell>
        <mxCell id="1YmXGS6Rd9u5P1QYLxjc-53" value="Κατάσταση προσθήκης&lt;div&gt;αλλαγής&lt;/div&gt;" style="edgeLabel;html=1;align=center;verticalAlign=middle;resizable=0;points=[];fontFamily=comfortaa;labelBackgroundColor=none;" connectable="0" vertex="1" parent="1YmXGS6Rd9u5P1QYLxjc-52">
          <mxGeometry x="0.3549" y="1" relative="1" as="geometry">
            <mxPoint x="-26" y="-3" as="offset" />
          </mxGeometry>
        </mxCell>
        <mxCell id="1YmXGS6Rd9u5P1QYLxjc-54" value="" style="edgeStyle=elbowEdgeStyle;fontSize=12;html=1;endArrow=blockThin;endFill=1;rounded=0;fontFamily=comfortaa;" edge="1" parent="1">
          <mxGeometry width="160" relative="1" as="geometry">
            <mxPoint x="320" y="1234" as="sourcePoint" />
            <mxPoint x="470" y="1234" as="targetPoint" />
          </mxGeometry>
        </mxCell>
        <mxCell id="1YmXGS6Rd9u5P1QYLxjc-55" value="επιλογή ακύρωση&amp;nbsp;&lt;div&gt;activity&lt;/div&gt;" style="edgeLabel;html=1;align=center;verticalAlign=middle;resizable=0;points=[];fontFamily=comfortaa;labelBackgroundColor=none;" connectable="0" vertex="1" parent="1YmXGS6Rd9u5P1QYLxjc-54">
          <mxGeometry x="0.3042" relative="1" as="geometry">
            <mxPoint x="-27" as="offset" />
          </mxGeometry>
        </mxCell>
        <mxCell id="1YmXGS6Rd9u5P1QYLxjc-56" value="&lt;font style=&quot;&quot;&gt;&lt;font style=&quot;font-size: 9px;&quot;&gt;Εναλλακτική ροή 3&lt;/font&gt;&lt;br&gt;&lt;/font&gt;" style="shape=umlFrame;whiteSpace=wrap;html=1;pointerEvents=0;fillColor=#f8cecc;gradientColor=#ea6b66;strokeColor=#b85450;fontFamily=comfortaa;" vertex="1" parent="1">
          <mxGeometry x="220" y="1064" width="574" height="476" as="geometry" />
        </mxCell>
        <mxCell id="1YmXGS6Rd9u5P1QYLxjc-57" value="" style="edgeStyle=elbowEdgeStyle;fontSize=12;html=1;endArrow=blockThin;endFill=1;rounded=0;fontFamily=comfortaa;" edge="1" parent="1">
          <mxGeometry width="160" relative="1" as="geometry">
            <mxPoint x="320" y="1262" as="sourcePoint" />
            <mxPoint x="470" y="1262" as="targetPoint" />
          </mxGeometry>
        </mxCell>
        <mxCell id="1YmXGS6Rd9u5P1QYLxjc-58" value="προσθηκη αιτιολογιας&lt;div&gt;ακύρωσης activity&lt;/div&gt;" style="edgeLabel;html=1;align=center;verticalAlign=middle;resizable=0;points=[];fontFamily=comfortaa;labelBackgroundColor=none;" connectable="0" vertex="1" parent="1YmXGS6Rd9u5P1QYLxjc-57">
          <mxGeometry x="0.3042" relative="1" as="geometry">
            <mxPoint x="-27" as="offset" />
          </mxGeometry>
        </mxCell>
        <mxCell id="1YmXGS6Rd9u5P1QYLxjc-59" value="" style="edgeStyle=elbowEdgeStyle;fontSize=12;html=1;endArrow=blockThin;endFill=1;rounded=0;fontFamily=comfortaa;" edge="1" parent="1">
          <mxGeometry width="160" relative="1" as="geometry">
            <mxPoint x="330" y="1430" as="sourcePoint" />
            <mxPoint x="480" y="1430" as="targetPoint" />
          </mxGeometry>
        </mxCell>
        <mxCell id="1YmXGS6Rd9u5P1QYLxjc-60" value="προσθηκη νεας ημερομηνιας&lt;div&gt;πραγματοποιησης του activity&lt;/div&gt;" style="edgeLabel;html=1;align=center;verticalAlign=middle;resizable=0;points=[];fontFamily=comfortaa;labelBackgroundColor=none;" connectable="0" vertex="1" parent="1YmXGS6Rd9u5P1QYLxjc-59">
          <mxGeometry x="0.3042" relative="1" as="geometry">
            <mxPoint x="-27" y="-18" as="offset" />
          </mxGeometry>
        </mxCell>
        <mxCell id="1YmXGS6Rd9u5P1QYLxjc-61" value="" style="edgeStyle=elbowEdgeStyle;fontSize=12;html=1;endArrow=blockThin;endFill=1;rounded=0;fontFamily=comfortaa;" edge="1" parent="1">
          <mxGeometry width="160" relative="1" as="geometry">
            <mxPoint x="550" y="1440" as="sourcePoint" />
            <mxPoint x="710" y="1440" as="targetPoint" />
          </mxGeometry>
        </mxCell>
        <mxCell id="1YmXGS6Rd9u5P1QYLxjc-62" value="ανανεωση ΒΔ&lt;div&gt;&lt;br&gt;&lt;/div&gt;" style="edgeLabel;html=1;align=center;verticalAlign=middle;resizable=0;points=[];fontFamily=comfortaa;labelBackgroundColor=none;" connectable="0" vertex="1" parent="1YmXGS6Rd9u5P1QYLxjc-61">
          <mxGeometry x="0.3042" relative="1" as="geometry">
            <mxPoint x="-27" as="offset" />
          </mxGeometry>
        </mxCell>
        <mxCell id="1YmXGS6Rd9u5P1QYLxjc-63" value="" style="edgeStyle=elbowEdgeStyle;fontSize=12;html=1;endArrow=none;endFill=0;rounded=0;startArrow=classic;startFill=1;dashed=1;fontFamily=comfortaa;" edge="1" parent="1">
          <mxGeometry width="160" relative="1" as="geometry">
            <mxPoint x="552" y="1484" as="sourcePoint" />
            <mxPoint x="712" y="1484" as="targetPoint" />
          </mxGeometry>
        </mxCell>
        <mxCell id="1YmXGS6Rd9u5P1QYLxjc-64" value="Κατάσταση προσθήκης&lt;div&gt;αλλαγής&lt;/div&gt;" style="edgeLabel;html=1;align=center;verticalAlign=middle;resizable=0;points=[];fontFamily=comfortaa;labelBackgroundColor=none;" connectable="0" vertex="1" parent="1YmXGS6Rd9u5P1QYLxjc-63">
          <mxGeometry x="0.3549" y="1" relative="1" as="geometry">
            <mxPoint x="-26" y="-3" as="offset" />
          </mxGeometry>
        </mxCell>
        <mxCell id="1YmXGS6Rd9u5P1QYLxjc-65" value="" style="html=1;points=[[0,0,0,0,5],[0,1,0,0,-5],[1,0,0,0,5],[1,1,0,0,-5]];perimeter=orthogonalPerimeter;outlineConnect=0;targetShapes=umlLifeline;portConstraint=eastwest;newEdgeStyle={&quot;curved&quot;:0,&quot;rounded&quot;:0};fillColor=#f8cecc;gradientColor=#ea6b66;strokeColor=#b85450;fontFamily=comfortaa;" vertex="1" parent="1">
          <mxGeometry x="727.5" y="1410" width="10" height="92" as="geometry" />
        </mxCell>
        <mxCell id="1YmXGS6Rd9u5P1QYLxjc-68" value="" style="edgeStyle=elbowEdgeStyle;fontSize=12;html=1;endArrow=blockThin;endFill=1;rounded=0;fontFamily=comfortaa;" edge="1" parent="1">
          <mxGeometry width="160" relative="1" as="geometry">
            <mxPoint x="320" y="1520" as="sourcePoint" />
            <mxPoint x="480" y="1520" as="targetPoint" />
          </mxGeometry>
        </mxCell>
        <mxCell id="1YmXGS6Rd9u5P1QYLxjc-69" value="Αποστολή μηνύματος&amp;nbsp;&lt;div&gt;στους χρήστες&lt;/div&gt;" style="edgeLabel;html=1;align=center;verticalAlign=middle;resizable=0;points=[];fontFamily=comfortaa;labelBackgroundColor=none;" connectable="0" vertex="1" parent="1YmXGS6Rd9u5P1QYLxjc-68">
          <mxGeometry x="0.3042" relative="1" as="geometry">
            <mxPoint x="-25" as="offset" />
          </mxGeometry>
        </mxCell>
      </root>
    </mxGraphModel>
  </diagram>
</mxfile>
